#!OML:ASF F:\VICON\USERDATA\INSTALL\rory3\rory3.ASF
:FULLY-SPECIFIED
:DEGREES
706
root -4.74835 17.5385 7.47102 220.236 259.489 150.04
lowerback 22.7149 0.823023 -5.20988
upperback 9.26776 -0.800829 -2.43326
thorax -2.49861 -0.742124 0.557121
lowerneck -18.1185 3.23982 -8.61058
upperneck 32.9413 4.67317 6.38114
head 13.8056 1.55733 4.78147
rclavicle 1.43125e-014 -2.06736e-014
rhumerus -28.4701 7.35645 -84.8972
rradius 53.755
rwrist 2.49646
rhand -17.9489 7.38637
rfingers 7.12502
rthumb 8.31962 -22.4298
lclavicle 1.43125e-014 -2.06736e-014
lhumerus 11.7768 8.39906 74.8737
lradius 33.964
lwrist 34.8667
lhand -24.5435 47.0051
lfingers 7.12502
lthumb 1.95243 76.9759
rfemur -18.1293 1.6998 29.3661
rtibia 36.1098
rfoot -21.6035 3.83164
rtoes 16.8776
lfemur -36.2846 -5.46945 -2.1179
ltibia 13.7954
lfoot -3.03351 12.1565
ltoes -31.4634
707
root -4.81223 17.5114 7.53001 222.017 259.567 148.39
lowerback 23.3026 0.890887 -5.44276
upperback 9.52199 -0.837615 -2.52081
thorax -2.5063 -0.782616 0.60538
lowerneck -18.3672 3.312 -8.25552
upperneck 32.643 4.78129 6.15243
head 13.74 1.63549 4.63844
rclavicle -3.18055e-015 -1.59028e-015
rhumerus -28.4874 7.24732 -85.0927
rradius 53.8272
rwrist 2.57268
rhand -17.7993 7.28965
rfingers 7.12502
rthumb 8.46406 -22.5207
lclavicle -3.18055e-015 -1.59028e-015
lhumerus 12.6861 9.12834 74.8161
lradius 33.5025
lwrist 34.0525
lhand -24.0886 47.3635
lfingers 7.12502
lthumb 2.39181 77.3298
rfemur -18.1994 1.60428 29.409
rtibia 36.4481
rfoot -21.949 4.09753
rtoes 16.4439
lfemur -36.6623 -4.32913 -2.51605
ltibia 14.1144
lfoot -3.17713 10.8869
ltoes -30.0814
708
root -4.87775 17.4845 7.59427 223.864 259.677 146.697
lowerback 23.883 0.995331 -5.55363
upperback 9.7142 -0.801383 -2.59461
thorax -2.58137 -0.780564 0.581757
lowerneck -18.6019 3.30061 -8.44832
upperneck 32.5126 4.81269 6.31062
head 13.7187 1.65743 4.74225
rclavicle 3.33958e-014 3.18055e-015
rhumerus -28.6145 7.14497 -85.0896
rradius 53.9292
rwrist 2.36694
rhand -17.7333 7.38676
rfingers 7.12502
rthumb 8.52773 -22.421
lclavicle 3.33958e-014 3.18055e-015
lhumerus 13.5094 9.62129 74.8721
lradius 33.0105
lwrist 33.2569
lhand -24.3788 47.4229
lfingers 7.12502
lthumb 2.11147 77.3922
rfemur -18.2724 1.62726 29.3996
rtibia 36.7664
rfoot -22.2999 4.21474
rtoes 16.0134
lfemur -37.094 -5.03542 -1.97098
ltibia 14.6534
lfoot -2.99702 11.7301
ltoes -29.5611
709
root -4.946 17.4548 7.6588 226.721 259.548 143.901
lowerback 24.5193 1.00825 -5.42239
upperback 9.91529 -0.826001 -2.54204
thorax -2.67195 -0.804784 0.573019
lowerneck -18.5546 3.37188 -8.67209
upperneck 32.1403 4.97977 6.38312
head 13.5202 1.73441 4.81092
rclavicle 9.54166e-015 6.36111e-015
rhumerus -28.6432 7.34533 -85.0196
rradius 53.9495
rwrist 2.14687
rhand -17.8529 7.46495
rfingers 7.12502
rthumb 8.4123 -22.3475
lclavicle 9.54166e-015 6.36111e-015
lhumerus 14.2192 10.1816 74.8512
lradius 32.5123
lwrist 32.7504
lhand -24.6185 47.3987
lfingers 7.12502
lthumb 1.87998 77.3702
rfemur -18.2518 1.47853 29.7243
rtibia 37.0652
rfoot -22.6386 4.38037
rtoes 15.6253
lfemur -37.4586 -5.35617 -1.34974
ltibia 15.2659
lfoot -3.01854 12.0207
ltoes -28.7376
710
root -5.01722 17.4177 7.72237 230.561 259.243 140.01
lowerback 25.1883 1.05104 -5.18514
upperback 10.1971 -0.79045 -2.41439
thorax -2.69006 -0.805164 0.569255
lowerneck -18.3426 3.50794 -8.44718
upperneck 31.4505 5.21175 6.06792
head 13.1796 1.85772 4.63462
rclavicle -3.18055e-015 3.33958e-014
rhumerus -28.4718 7.53935 -84.9709
rradius 53.8668
rwrist 2.10145
rhand -17.9019 7.48175
rfingers 7.12502
rthumb 8.36498 -22.3326
lclavicle -3.18055e-015 3.33958e-014
lhumerus 15.0417 10.5338 74.6777
lradius 32.0033
lwrist 32.5595
lhand -24.7453 47.5203
lfingers 7.12502
lthumb 1.75751 77.4929
rfemur -18.1358 1.02684 30.3647
rtibia 37.3811
rfoot -23.0224 4.62866
rtoes 14.1323
lfemur -37.722 -4.82702 -0.874926
ltibia 15.9571
lfoot -3.17062 11.1488
ltoes -27.4204
711
root -5.0883 17.3828 7.79361 233.609 259.242 137.008
lowerback 25.7849 1.21732 -5.19914
upperback 10.4936 -0.664145 -2.44243
thorax -2.65418 -0.767851 0.513505
lowerneck -18.4436 3.51709 -8.38721
upperneck 30.9795 5.28393 5.93751
head 13.0054 1.90727 4.56343
rclavicle 1.90833e-014 1.04958e-013
rhumerus -28.3679 7.53536 -84.907
rradius 53.9382
rwrist 1.91021
rhand -17.7821 7.48182
rfingers 7.12502
rthumb 8.48061 -22.3279
lclavicle 1.90833e-014 1.04958e-013
lhumerus 16.0497 10.8404 74.5765
lradius 31.4855
lwrist 32.1738
lhand -24.7075 47.3245
lfingers 7.12502
lthumb 1.79403 77.2967
rfemur -18.1112 0.659087 30.5656
rtibia 37.7237
rfoot -23.4212 5.01314
rtoes 12.5269
lfemur -38.0678 -4.57785 -0.602588
ltibia 16.829
lfoot -3.20192 10.5216
ltoes -26.5506
712
root -5.15804 17.3486 7.86998 236.586 259.336 134.327
lowerback 26.1937 1.34753 -5.2678
upperback 10.735 -0.582029 -2.53047
thorax -2.58463 -0.748889 0.43382
lowerneck -18.8047 3.48802 -8.61824
upperneck 30.7602 5.35191 6.01238
head 12.9741 1.93668 4.64517
rclavicle 3.49861e-014 4.13472e-014
rhumerus -28.3683 7.71343 -84.7963
rradius 54.158
rwrist 1.56737
rhand -17.6205 7.50879
rfingers 7.12502
rthumb 8.6366 -22.2946
lclavicle 3.49861e-014 4.13472e-014
lhumerus 17.107 11.5668 74.6849
lradius 30.9924
lwrist 31.3729
lhand -24.6968 46.8865
lfingers 7.12502
lthumb 1.80439 76.8586
rfemur -18.3838 0.408672 30.5592
rtibia 38.1181
rfoot -23.6997 5.52871
rtoes 11.0491
lfemur -38.6629 -3.65577 -0.825167
ltibia 17.7346
lfoot -2.78984 9.06035
ltoes -27.1983
